<svg xmlns="http://www.w3.org/2000/svg" style="display: none;">
  <!-- Plastic icon -->
  <symbol id="icon-plastic" viewBox="0 0 24 24">
    <path d="M20.832 4.555c-.242-.349-.566-.555-.94-.555h-3.469v-1c0-1.103-.897-2-2-2h-4.846c-1.103 0-2 .897-2 2v1h-3.469c-.374 0-.698.206-.94.555-.242.348-.294.79-.142 1.205l3.999 11.985c.241.724.908 1.211 1.649 1.211h6.653c.741 0 1.408-.487 1.649-1.211l3.999-11.985c.152-.415.1-.857-.143-1.205zm-11.169-1.555c0-.275.224-.5.5-.5h4.846c.276 0 .5.225.5.5v1h-5.846v-1zm5.52 14h-6.307l-3.394-10.243c.202.031.41.052.518.243h12.5c.157 0 .304-.035.439-.086l-3.756 10.086z"/>
  </symbol>
  
  <!-- Organic icon -->
  <symbol id="icon-organic" viewBox="0 0 24 24">
    <path d="M18 9c-.009 0-.018 0-.027 0h-.033c-1.396 0-2.565-.582-3.385-1.69-.819-1.106-1.156-2.511-.981-4.058.021-.192-.035-.388-.15-.536-.115-.148-.288-.233-.478-.233h-2.239c-.171-.019-.343.043-.466.167-.126.127-.185.301-.161.475.195 1.401-.15 2.704-1.004 3.777-.838 1.057-2.029 1.65-3.448 1.718-.197.009-.379.099-.495.249-.116.15-.164.342-.131.527.02.113.521 2.772 2.411 4.626 1.987 1.948 4.903 2.535 8.681 1.744.182-.039.342-.144.444-.295.104-.152.144-.336.11-.519-.02-.115-.521-2.775-2.409-4.629-.468-.459-.988-.843-1.555-1.145.623.369 1.163.858 1.574 1.473 1.112 1.664 1.37 3.708 1.364 4.504.757.168 1.437.372 2.061.602.217.08.455.057.652-.062.195-.118.326-.32.354-.548.009-.071.231-1.75-.137-3.812-.367-2.05-1.188-3.349-2.452-3.869-.128-.052-.264-.078-.4-.079v-.26c0-.28-.224-.506-.5-.506z"/>
    <path d="M16.746 15.901c-.392-.286-.847-.491-1.323-.595.07.755-.11 1.614-.544 2.322-.532.865-1.367 1.427-2.478 1.663-.062.013-.118.037-.173.064 2.248.287 4.042-.108 5.364-1.206 1.049-.87 1.537-1.975 1.72-2.597-.809.012-1.726.113-2.566.349z"/>
    <path d="M9.651 18.444c.315-.608.371-1.361.149-2.236-.286-1.126-1.016-1.752-1.18-1.896-.533.68-.739 1.597-.806 2.012 1.015.522 1.67 1.381 1.837 2.12z"/>
  </symbol>
  
  <!-- Metal icon -->
  <symbol id="icon-metal" viewBox="0 0 24 24">
    <path d="M21 9h-2v-4c0-1.103-.897-2-2-2h-10c-1.103 0-2 .897-2 2v4h-2c-.552 0-1 .448-1 1v10c0 .552.448 1 1 1h18c.552 0 1-.448 1-1v-10c0-.552-.448-1-1-1zm-15-4c0-.276.224-.5.5-.5h11c.276 0 .5.224.5.5v4h-12v-4zm14 14h-16v-8h2v1c0 .552.448 1 1 1h10c.552 0 1-.448 1-1v-1h2v8z"/>
    <path d="M10 14h4v2h-4z"/>
  </symbol>
  
  <!-- Paper icon -->
  <symbol id="icon-paper" viewBox="0 0 24 24">
    <path d="M19.903 8.586l-4.488-4.489c-.182-.182-.428-.284-.685-.284h-8.23c-.828 0-1.5.672-1.5 1.5v13.374c0 .828.672 1.5 1.5 1.5h12c.828 0 1.5-.672 1.5-1.5v-9.418c0-.257-.102-.503-.284-.685zm-1.415 1.415h-2.073c-.552 0-1-.448-1-1v-2.073l3.073 3.073zm-11.988 8.586v-13.374c0-.276.224-.5.5-.5h7.444v3.291c0 1.105.895 2 2 2h3.29v8.583c0 .276-.224.5-.5.5h-12c-.276 0-.5-.224-.5-.5z"/>
    <path d="M7 13h10v1h-10z"/>
    <path d="M7 15h10v1h-10z"/>
    <path d="M7 17h10v1h-10z"/>
    <path d="M7 11h10v1h-10z"/>
  </symbol>
  
  <!-- E-Waste icon -->
  <symbol id="icon-ewaste" viewBox="0 0 24 24">
    <path d="M20 17.722c.595-.347 1-.985 1-1.722v-11c0-1.103-.897-2-2-2h-14c-1.103 0-2 .897-2 2v11c0 .737.405 1.375 1 1.722v1.278c0 .552.448 1 1 1h14c.552 0 1-.448 1-1v-1.278zm-18-12.722c0-.276.224-.5.5-.5h15c.276 0 .5.224.5.5v11c0 .276-.224.5-.5.5h-15c-.276 0-.5-.224-.5-.5v-11zm16 14h-14v-1h14v1z"/>
    <path d="M9 9h6v1h-6z"/>
  </symbol>
</svg>
